M48
;DRILL file {KiCad (5.0.0)} date 11/25/18 17:17:46
;FORMAT={-:-/ absolute / inch / decimal}
FMAT,2
INCH,TZ
T1C0.0157
T2C0.0295
T3C0.0394
%
G90
G05
M72
T1
X6.4831Y-5.4134
X6.6071Y-5.5472
X6.6346Y-5.2677
X6.6484Y-5.1319
X6.6898Y-5.502
X6.7154Y-4.4311
X6.7902Y-5.1949
X6.8138Y-4.3268
X6.8217Y-5.0965
X6.8335Y-5.4587
X6.8354Y-5.061
X6.8827Y-5.0748
X6.9299Y-4.8878
X6.9417Y-5.1102
X6.9476Y-5.3642
X6.989Y-5.1516
T2
X6.5026Y-4.5276
X6.5026Y-5.315
X6.6026Y-4.5276
X6.6026Y-5.315
X6.7026Y-4.5276
X6.7026Y-5.315
X6.8026Y-4.5276
X6.8026Y-5.315
X6.9026Y-4.5276
X6.9026Y-5.315
T3
X6.5087Y-4.6337
X6.5087Y-4.7337
X6.5087Y-4.8337
X6.6602Y-4.6337
X6.6602Y-4.7337
X6.6602Y-4.8337
T0
M30
